<svg xmlns="http://www.w3.org/2000/svg" version="1.1" xmlns:xlink="http://www.w3.org/1999/xlink" xmlns:svgjs="http://svgjs.dev/svgjs" width="2000" height="2250" viewBox="0 0 2000 2250"><g transform="matrix(1,0,0,1,0,0)"><svg viewBox="0 0 320 360" data-background-color="#ffffff" preserveAspectRatio="xMidYMid meet" height="2250" width="2000" xmlns="http://www.w3.org/2000/svg" xmlns:xlink="http://www.w3.org/1999/xlink"><g id="tight-bounds" transform="matrix(1,0,0,1,0,0)"><svg viewBox="0 0 320 360" height="360" width="320"><g><svg></svg></g><g><svg viewBox="0 0 320 360" height="360" width="320"><g><path xmlns="http://www.w3.org/2000/svg" d="M297.491 100.645c-12.426-21.51-112.674-79.355-137.491-79.355-24.817 0-125.028 57.845-137.491 79.355-11.591 20.02-11.591 138.726 0 158.746 12.463 21.474 112.674 79.319 137.491 79.319 24.817 0 125.064-57.845 137.491-79.355 11.591-20.02 11.591-138.69 0-158.71zM309.481 93.705c-14.461-24.998-119.469-86.295-149.481-86.295-30.012 0-135.02 61.297-149.481 86.295-14.025 24.199-14.025 148.391 0 172.59 14.461 24.998 119.469 86.295 149.481 86.295 30.012 0 135.02-61.297 149.481-86.259 14.025-24.235 14.025-148.427 0-172.626zM300.906 261.353c-12.753 22.055-115.472 81.317-140.906 81.318-25.434 0-128.153-59.298-140.906-81.354-11.881-20.529-11.881-142.178 0-162.707 12.753-22.019 115.472-81.281 140.906-81.281 25.434 0 128.153 59.298 140.906 81.318 11.881 20.529 11.881 142.178 0 162.706z" fill="#ec6868" fill-rule="nonzero" stroke="none" stroke-width="1" stroke-linecap="butt" stroke-linejoin="miter" stroke-miterlimit="10" stroke-dasharray="" stroke-dashoffset="0" font-family="none" font-weight="none" font-size="none" text-anchor="none" style="mix-blend-mode: normal" data-fill-palette-color="tertiary"></path></g><g transform="matrix(1,0,0,1,94.28454619787408,90)"><svg viewBox="0 0 131.43090760425184 180" height="180" width="131.43090760425184"><g><svg viewBox="0 0 131.43090760425184 180" height="180" width="131.43090760425184"><g><svg viewBox="0 0 131.43090760425184 180" height="180" width="131.43090760425184"><g><svg viewBox="0 0 131.43090760425184 180" height="180" width="131.43090760425184"><g id="textblocktransform"><svg viewBox="0 0 131.43090760425184 180" height="180" width="131.43090760425184" id="textblock"><g><svg viewBox="0 0 131.43090760425184 180" height="180" width="131.43090760425184"><g transform="matrix(1,0,0,1,0,0)"><svg width="131.43090760425184" viewBox="-3.5199999809265137 -50.59000015258789 43.61000061035156 59.720001220703125" height="180" data-palette-color="#ffffff"><path d="M40.09-1.81L40.09-1.81Q40.09-1.32 40.04-1.07L40.04-1.07Q39.79-0.98 39.65-0.81 39.5-0.63 39.16-0.68L39.16-0.68Q39.06 0.05 38.67 0.54 38.28 1.03 37.87 1.44 37.45 1.86 37.06 2.32 36.67 2.78 36.57 3.52L36.57 3.52Q35.84 3.91 35.13 4.57 34.42 5.22 33.89 5.47L33.89 5.47Q33.5 5.66 33.06 5.79 32.62 5.91 32.18 6.1L32.18 6.1Q30.76 6.74 29.27 7.42 27.78 8.11 26.17 8.11L26.17 8.11 25.83 8.11Q25.63 8.3 25.34 8.37 25.05 8.45 24.76 8.5 24.46 8.54 24.17 8.64 23.88 8.74 23.73 8.94L23.73 8.94Q23.19 8.74 22.56 8.74L22.56 8.74 22.22 8.74Q21.39 8.94 20.65 9.03 19.92 9.13 19.09 9.13L19.09 9.13Q17.63 9.13 16.16 8.94 14.7 8.74 13.23 8.59L13.23 8.59Q12.3 7.86 11.72 6.76 11.13 5.66 11.13 4.44L11.13 4.44Q11.13 3.52 11.52 2.71 11.91 1.9 12.55 1.27L12.55 1.27 12.7 1.27Q13.13 1.27 13.6 1.07 14.06 0.88 14.5 0.88L14.5 0.88Q14.99 0.88 15.31 1.27 15.63 1.66 15.8 2.2 15.97 2.73 16.02 3.3 16.06 3.86 16.06 4.2L16.06 4.2Q16.6 4.44 17.21 4.49 17.82 4.54 18.46 4.54L18.46 4.54Q19.09 4.54 19.87 4.47 20.65 4.39 21.46 4.22 22.27 4.05 23.02 3.81 23.78 3.56 24.32 3.17L24.32 3.17Q27 2.93 29.05 1.95 31.1 0.98 33.4-0.34L33.4-0.34Q33.5-0.88 33.81-1.2 34.13-1.51 34.13-2.15L34.13-2.15Q34.13-2.25 34.11-2.37 34.08-2.49 34.08-2.59L34.08-2.59Q33.11-3.81 32.06-4.74 31.01-5.66 29.35-5.96L29.35-5.96Q29.15-6.4 28.71-6.62 28.27-6.84 27.78-7.03 27.29-7.23 26.86-7.45 26.42-7.67 26.22-8.2L26.22-8.2Q24.9-8.45 23.51-8.81 22.12-9.18 21.14-10.16L21.14-10.16Q20.36-10.21 19.65-10.47 18.95-10.74 18.26-11.01 17.58-11.28 16.85-11.5 16.11-11.72 15.33-11.72L15.33-11.72Q15.14-12.06 14.79-12.26 14.45-12.45 14.04-12.6 13.62-12.74 13.26-12.92 12.89-13.09 12.7-13.43L12.7-13.43Q12.5-13.38 12.4-13.23 12.3-13.09 12.06-13.09L12.06-13.09 11.87-13.09Q11.77-13.38 11.47-13.5 11.18-13.62 11.13-14.01L11.13-14.01Q10.25-14.06 9.55-14.36 8.84-14.65 8.23-15.01 7.62-15.38 6.98-15.72 6.35-16.06 5.57-16.26L5.57-16.26Q5.08-16.65 4.66-17.11 4.25-17.58 3.61-17.58L3.61-17.58Q3.47-17.58 3.08-17.48L3.08-17.48Q2.98-18.36 2.34-18.73 1.71-19.09 0.98-19.38L0.98-19.38Q0.49-20.65-0.34-21.63-1.17-22.61-2.15-23.44L-2.15-23.44Q-2.05-23.73-2.05-23.88L-2.05-23.88Q-2.05-24.37-2.29-24.73-2.54-25.1-2.83-25.34L-2.83-25.34Q-3.52-27.54-3.52-29.64L-3.52-29.64Q-3.52-32.57-2.22-35.08-0.93-37.6 1.86-38.87L1.86-38.87Q1.9-39.26 2.12-39.55 2.34-39.84 2.39-40.23L2.39-40.23Q2.83-40.23 3.08-40.43 3.32-40.63 3.54-40.84 3.76-41.06 4-41.26 4.25-41.46 4.64-41.5L4.64-41.5Q6.49-43.12 8.59-44.12 10.69-45.12 12.89-46.19L12.89-46.19Q13.33-46.39 13.62-46.92L13.62-46.92 13.92-46.92Q14.4-46.92 14.67-47.14 14.94-47.36 15.48-47.27L15.48-47.27Q15.67-47.56 15.99-47.66 16.31-47.75 16.63-47.83 16.94-47.9 17.24-48.05 17.53-48.19 17.63-48.49L17.63-48.49 17.97-48.49Q18.8-48.49 19.58-48.75 20.36-49.02 21.14-49.37L21.14-49.37 21.48-49.37Q22.46-49.37 23.32-49.73 24.17-50.1 25.15-50.24L25.15-50.24Q25.54-50.34 25.93-50.29 26.32-50.24 26.71-50.24L26.71-50.24Q26.95-50.24 27.29-50.29 27.64-50.34 27.78-50.59L27.78-50.59 27.88-50.59Q28.17-50.59 28.22-50.39 28.27-50.2 28.52-50.2L28.52-50.2Q28.86-50.2 29.2-50.29 29.54-50.39 29.88-50.39L29.88-50.39Q31.35-50.39 32.79-50.1 34.23-49.8 35.64-49.56L35.64-49.56Q35.74-48.97 36.16-48.73 36.57-48.49 37.06-48.29L37.06-48.29 37.06-48.1Q37.06-47.71 37.26-47.46L37.26-47.46Q37.06-46.78 36.57-46.44 36.08-46.09 35.5-45.85L35.5-45.85Q35.74-45.65 35.79-45.31 35.84-44.97 35.84-44.68L35.84-44.68 35.84-44.09 35.6-44.14Q34.81-44.14 34.81-43.41L34.81-43.41Q34.18-43.8 33.42-43.9 32.67-43.99 31.93-43.99L31.93-43.99Q30.96-43.99 29.88-43.92 28.81-43.85 27.78-43.95L27.78-43.95Q27.39-43.46 26.81-43.24 26.22-43.02 25.63-43.02L25.63-43.02Q25-43.02 24.41-43.29 23.83-43.55 23.58-44.09L23.58-44.09Q23.34-44.19 23.14-44.19L23.14-44.19 22.71-44.19Q21.92-44.19 21.17-44.02 20.41-43.85 19.63-43.63 18.85-43.41 18.09-43.19 17.33-42.97 16.55-42.92L16.55-42.92Q16.26-42.53 15.77-42.38 15.28-42.24 14.99-41.85L14.99-41.85Q13.96-41.65 13.13-41.19 12.3-40.72 11.52-40.19L11.52-40.19 10.01-39.16Q9.28-38.67 8.35-38.33L8.35-38.33Q7.67-37.6 7.08-37.16 6.49-36.72 5.57-36.38L5.57-36.38Q4.98-36.18 4.91-35.79 4.83-35.4 4.49-35.01L4.49-35.01Q4.2-34.67 3.78-34.5 3.37-34.33 3.08-33.94L3.08-33.94Q2.83-33.59 2.71-33.13 2.59-32.67 2.44-32.23 2.29-31.79 2.1-31.37 1.9-30.96 1.51-30.66L1.51-30.66Q1.51-30.47 1.49-30.27 1.46-30.08 1.46-29.93L1.46-29.93Q1.46-29.25 1.64-28.54 1.81-27.83 1.86-27.15L1.86-27.15Q2.83-25.44 4.15-24.05 5.47-22.66 6.98-21.48 8.5-20.31 10.13-19.29 11.77-18.26 13.38-17.29L13.38-17.29Q13.96-17.33 14.45-17.16 14.94-16.99 15.48-16.94L15.48-16.94Q16.06-16.5 16.85-16.26L16.85-16.26 18.41-15.77Q19.19-15.53 19.92-15.21 20.65-14.89 21.14-14.36L21.14-14.36Q21.39-14.31 21.58-14.23 21.78-14.16 22.02-14.16L22.02-14.16Q22.31-14.16 22.36-14.36L22.36-14.36Q24.56-13.53 26.66-12.52 28.76-11.52 31.1-10.99L31.1-10.99Q32.03-10.21 33.15-9.62 34.28-9.03 35.4-8.42 36.52-7.81 37.55-7.1 38.57-6.4 39.36-5.42L39.36-5.42Q39.45-4.49 39.77-3.64 40.09-2.78 40.09-1.81Z" opacity="1" transform="matrix(1,0,0,1,0,0)" fill="#ffffff" class="wordmark-text-0" data-fill-palette-color="quaternary" id="text-0"></path></svg></g></svg></g></svg></g></svg></g><g></g></svg></g></svg></g></svg></g></svg></g><defs></defs></svg><rect width="320" height="360" fill="none" stroke="none" visibility="hidden"></rect></g></svg></g></svg>